# xmcd
# 
# Track frame offsets:
#     150
#     12073
#     14338
#     26058
#     37853
#     49023
#     57613
#     72038
#     73757
#     88388
#     103103
#     116919
#     128071
#     142260
#     154344
#     163216
#     179767
#     196600
#     203435
#     214525
#     225668
#     236080
#     241126
#     256672
#     262442
#     278428
#     281271
#     295764
#     298600
#     313597
# 
# Disc length: 4372
# 
# Revision: 1
# Processed by: cddbd v1.5.2PL0 Copyright (c) Steve Scherf et al.
# Submitted via: fre:ac v1.0.27
# 
DISCID=c011121e
DTITLE=B. B. KING - THE COMPLETE RPM - KENT RECORDING BOX
DYEAR=2015
DGENRE=Blues
TTITLE0=Eyesight To The Blind - take 1
TTITLE1=Eyesight To The Blind - take 2
TTITLE2=Eyesight To The Blind - take 3
TTITLE3=Eyesight To The Blind - take 4
TTITLE4=Eyesight To The Blind - take 4 (alt. version)
TTITLE5=Radio Show - WVON DJ Ed Cook Plays And Talks About DJ Bee Bee At The WDIA, Memphis
TTITLE6=Ain't Nobody's Business - take 1
TTITLE7=Ain't Nobody's Business - take 2
TTITLE8=Ain't Nobody's Business - take 3
TTITLE9=Ain't Nobody's Business - take 3 (different session)
TTITLE10=A Woman Don't Care - take 1
TTITLE11=A Woman Don't Care - take 2 (incomplete) and teke 3 (incomplete)
TTITLE12=A Woman Don't Care - take 4
TTITLE13=A Woman Don't Care - take 5
TTITLE14=A Woman Don't Care - take 6 (incomplete) and take 7 (incomplete)
TTITLE15=A Woman Don't Care - take 8
TTITLE16=A Woman Don't Care - take 8 (alt. version)
TTITLE17=Make Me Blue - take 1 (incomplete) and take 2 (incomplete)
TTITLE18=Make Me Blue - take 3
TTITLE19=Make Me Blue - take 9
TTITLE20=Make Me Blue - take 9 (alt. version)
TTITLE21=Radio Spot: Advertising One of Kent LPs
TTITLE22=5 Long Years - take 1
TTITLE23=5 Long Years - take 3 (incomplete)
TTITLE24=5 Long Years - take 5
TTITLE25=Blues Stay Away From Me - take 1 (incomplete) and take 2 (incomplete)
TTITLE26=Blues Stay Away From Me - take 3
TTITLE27=Blues Stay Away From Me - take 4 (incomplete) and take 5 (incomplete)
TTITLE28=Blues Stay Away From Me - take 6
TTITLE29=Blues Stay Away From Me - take 7
EXTD=
EXTT0=
EXTT1=
EXTT2=
EXTT3=
EXTT4=
EXTT5=
EXTT6=
EXTT7=
EXTT8=
EXTT9=
EXTT10=
EXTT11=
EXTT12=
EXTT13=
EXTT14=
EXTT15=
EXTT16=
EXTT17=
EXTT18=
EXTT19=
EXTT20=
EXTT21=
EXTT22=
EXTT23=
EXTT24=
EXTT25=
EXTT26=
EXTT27=
EXTT28=
EXTT29=
PLAYORDER=
